HIERARCHY
ROOT joint_Root
{
	OFFSET 0.0 0.0 0.0
	CHANNELS 6 Xposition Yposition Zposition Zrotation Xrotation Yrotation 
	JOINT Hips
	{
		OFFSET 4.5925 91.4895 -427.239
		CHANNELS 6 Xposition Yposition Zposition Zrotation Xrotation Yrotation 
		JOINT Spine
		{
			OFFSET 15.7357 0.0 0.0
			CHANNELS 6 Xposition Yposition Zposition Zrotation Xrotation Yrotation 
			JOINT Chest
			{
				OFFSET 8.98455 -0.406207 0.0
				CHANNELS 6 Xposition Yposition Zposition Zrotation Xrotation Yrotation 
				JOINT Neck
				{
					OFFSET 16.3773 0.0 0.0
					CHANNELS 6 Xposition Yposition Zposition Zrotation Xrotation Yrotation 
					JOINT Head
					{
						OFFSET 6.45672 0.0 0.0
						CHANNELS 6 Xposition Yposition Zposition Zrotation Xrotation Yrotation 
						End Site
						{
							OFFSET 0.0 0.0 0.0
						}
					}
				}
				JOINT Shoulder_L
				{
					OFFSET 12.9942 -0.242716 4.98039
					CHANNELS 6 Xposition Yposition Zposition Zrotation Xrotation Yrotation 
					JOINT UpperArm_L
					{
						OFFSET 5.34809 0.0 0.0
						CHANNELS 6 Xposition Yposition Zposition Zrotation Xrotation Yrotation 
						JOINT LowerArm_L
						{
							OFFSET 24.3286 1.87007e-05 0.0
							CHANNELS 6 Xposition Yposition Zposition Zrotation Xrotation Yrotation 
							JOINT Hand_L
							{
								OFFSET 22.2916 0.0 0.0
								CHANNELS 6 Xposition Yposition Zposition Zrotation Xrotation Yrotation 
								End Site
								{
									OFFSET 0.0 0.0 0.0
								}
							}
						}
					}
				}
				JOINT Shoulder_R
				{
					OFFSET 12.9945 -0.242716 -4.98039
					CHANNELS 6 Xposition Yposition Zposition Zrotation Xrotation Yrotation 
					JOINT UpperArm_R
					{
						OFFSET -5.34813 0.0 0.0
						CHANNELS 6 Xposition Yposition Zposition Zrotation Xrotation Yrotation 
						JOINT LowerArm_R
						{
							OFFSET -24.3289 0.000322201 0.0
							CHANNELS 6 Xposition Yposition Zposition Zrotation Xrotation Yrotation 
							JOINT Hand_R
							{
								OFFSET -22.2915 -0.000108084 0.0
								CHANNELS 6 Xposition Yposition Zposition Zrotation Xrotation Yrotation 
								End Site
								{
									OFFSET 0.0 0.0 0.0
								}
							}
						}
					}
				}
			}
		}
		JOINT UpperLeg_L
		{
			OFFSET -2.19248 -6.46944 0.0
			CHANNELS 6 Xposition Yposition Zposition Zrotation Xrotation Yrotation 
			JOINT LowerLeg_L
			{
				OFFSET 39.0811 0.0 -1.23785e-05
				CHANNELS 6 Xposition Yposition Zposition Zrotation Xrotation Yrotation 
				JOINT Foot_L
				{
					OFFSET 40.9854 0.0 -1.26872e-05
					CHANNELS 6 Xposition Yposition Zposition Zrotation Xrotation Yrotation 
					JOINT Toes_L
					{
						OFFSET 11.7543 0.0 0.0
						CHANNELS 6 Xposition Yposition Zposition Zrotation Xrotation Yrotation 
						End Site
						{
							OFFSET 0.0 0.0 0.0
						}
					}
				}
			}
		}
		JOINT UpperLeg_R
		{
			OFFSET -2.19251 6.46944 0.0
			CHANNELS 6 Xposition Yposition Zposition Zrotation Xrotation Yrotation 
			JOINT LowerLeg_R
			{
				OFFSET -39.0811 -0.00228153 -0.0401928
				CHANNELS 6 Xposition Yposition Zposition Zrotation Xrotation Yrotation 
				JOINT Foot_R
				{
					OFFSET -40.9854 0.0 0.0
					CHANNELS 6 Xposition Yposition Zposition Zrotation Xrotation Yrotation 
					JOINT Toes_R
					{
						OFFSET -11.7543 0.0 0.0
						CHANNELS 6 Xposition Yposition Zposition Zrotation Xrotation Yrotation 
						End Site
						{
							OFFSET 0.0 0.0 0.0
						}
					}
				}
			}
		}
	}
}
MOTION
Frames:	6
Frame Time:	0.0333333
0.000000 0.000000 0.000000 0.000000 0.000000 -0.000000 4.580550 90.942200 1.747290 87.956300 -16.898900 4.150350 15.735700 0.000005 -0.000001 72.064600 86.066500 -68.940700 8.984550 -0.406207 -0.000000 -0.201309 -2.639010 6.240370 16.377300 -0.000001 -0.000001 3.536610 1.026500 -3.341700 6.456720 -0.000001 -0.000000 -2.354500 1.214960 1.407650 12.994200 -0.242716 4.980390 -83.761500 -12.023800 -62.311700 5.348090 -0.000007 -0.000001 -31.221000 -66.110600 -74.597300 24.328600 0.000019 0.000005 14.194400 11.189200 -52.504700 22.291600 -0.000001 0.000005 22.775100 5.390670 -2.636750 12.994500 -0.242716 -4.980390 87.647100 8.787790 -74.946700 -5.348130 -0.000001 -0.000004 -55.021900 21.139500 -6.048520 -24.328900 0.000322 -0.000009 -0.060570 -0.130993 -24.430300 -22.291500 -0.000108 -0.000004 19.734900 5.421910 -3.663470 -2.192480 -6.469440 -0.000000 -178.309000 -18.612800 -2.282330 39.081100 -0.000007 -0.000012 -0.143256 0.262530 28.620300 40.985400 -0.000006 -0.000013 1.409790 -3.767640 -72.305700 11.754300 -0.000000 0.000003 -0.000187 -0.001746 -16.643600 -2.192510 6.469440 -0.000001 173.918000 16.316900 174.647000 -39.081100 -0.002282 -0.040193 -0.009251 0.023389 28.229400 -40.985400 0.000008 0.000006 4.914460 23.214400 -69.416600 -11.754300 -0.000006 -0.000006 -0.002128 -0.030307 -17.805500
0.000000 0.000000 0.000000 0.000000 0.000000 -0.000000 4.534020 90.977600 1.652370 88.037100 -16.486500 4.155690 15.735700 0.000005 -0.000001 72.497900 86.000000 -69.491300 8.984550 -0.406207 -0.000000 -0.060174 -2.610510 6.008960 16.377300 -0.000001 -0.000001 3.500500 0.923757 -3.340290 6.456720 -0.000001 -0.000000 -2.461520 1.186940 1.365140 12.994200 -0.242716 4.980390 -83.982900 -11.636800 -62.409500 5.348090 -0.000007 -0.000001 -31.400000 -65.419700 -72.901800 24.328600 0.000019 0.000005 14.440800 10.202600 -55.478300 22.291600 -0.000001 0.000005 22.825200 5.385750 -2.480050 12.994500 -0.242716 -4.980390 87.613900 8.871120 -74.879300 -5.348130 -0.000001 -0.000004 -55.130000 21.244000 -6.148180 -24.328900 0.000322 -0.000009 -0.180787 -0.391993 -24.630600 -22.291500 -0.000108 -0.000004 19.911100 5.422180 -3.672620 -2.192480 -6.469440 -0.000000 -178.390000 -18.281500 -2.347450 39.081100 -0.000007 -0.000012 -0.138714 0.255576 28.491200 40.985400 -0.000006 -0.000013 1.429420 -3.656140 -72.133000 11.754300 -0.000000 0.000003 -0.000190 -0.001777 -16.644700 -2.192510 6.469440 -0.000001 173.927000 16.404700 174.713000 -39.081100 -0.002282 -0.040193 -0.008074 0.021333 28.078500 -40.985400 0.000008 0.000006 4.907840 22.850000 -69.387900 -11.754300 -0.000006 -0.000006 -0.001850 -0.026829 -17.664000
0.000000 0.000000 0.000000 0.000000 0.000000 -0.000000 4.449820 91.028700 1.555280 88.127200 -15.964100 4.154630 15.735700 0.000005 -0.000001 73.010600 85.939500 -70.130200 8.984550 -0.406207 -0.000000 0.072134 -2.565520 5.759470 16.377300 -0.000001 -0.000001 3.362460 0.815857 -3.287050 6.456720 -0.000001 -0.000000 -2.455690 1.212900 1.258850 12.994200 -0.242716 4.980390 -84.353600 -11.041400 -62.695500 5.348090 -0.000007 -0.000001 -30.943600 -64.342400 -70.056100 24.328600 0.000019 0.000005 14.392000 8.702800 -59.474200 22.291600 -0.000001 0.000005 22.818300 5.378230 -2.242940 12.994500 -0.242716 -4.980390 87.584300 8.922880 -74.784400 -5.348130 -0.000001 -0.000004 -55.426300 21.262400 -6.159220 -24.328900 0.000322 -0.000009 -0.208971 -0.454932 -24.560800 -22.291500 -0.000108 -0.000004 19.943100 5.422420 -3.680650 -2.192480 -6.469440 -0.000000 -178.417000 -18.065800 -2.359760 39.081100 -0.000007 -0.000012 -0.131236 0.244018 28.272000 40.985400 -0.000006 -0.000013 1.476530 -3.327860 -71.917700 11.754300 -0.000000 0.000003 -0.000209 -0.001918 -16.649800 -2.192510 6.469440 -0.000001 173.925000 16.698900 174.856000 -39.081100 -0.002282 -0.040193 -0.005436 0.016542 27.856600 -40.985400 0.000008 0.000006 5.122800 22.544600 -69.456000 -11.754300 -0.000006 -0.000006 -0.001971 -0.028353 -17.726000
0.000000 0.000000 0.000000 0.000000 0.000000 -0.000000 4.339130 91.085400 1.425170 88.189700 -15.287900 4.075370 15.735700 0.000005 -0.000001 73.458600 85.891100 -70.691800 8.984550 -0.406207 -0.000000 0.179288 -2.522090 5.534670 16.377300 -0.000001 -0.000001 3.223910 0.756342 -3.199230 6.456720 -0.000001 -0.000000 -2.522640 1.206210 1.101050 12.994200 -0.242716 4.980390 -84.828100 -10.264200 -63.070900 5.348090 -0.000007 -0.000001 -30.996100 -62.644800 -66.898700 24.328600 0.000019 0.000005 14.036700 6.798270 -64.663600 22.291600 -0.000001 0.000005 22.647300 5.366020 -1.864070 12.994500 -0.242716 -4.980390 87.541800 9.050970 -74.735800 -5.348130 -0.000001 -0.000004 -55.692900 21.487300 -6.042990 -24.328900 0.000322 -0.000009 -0.256952 -0.565056 -24.364000 -22.291500 -0.000108 -0.000004 19.943900 5.419030 -3.566300 -2.192480 -6.469440 -0.000000 -178.387000 -17.921400 -2.481420 39.081100 -0.000007 -0.000012 -0.123667 0.231809 28.079500 40.985400 -0.000006 -0.000013 1.560630 -2.771980 -71.684100 11.754300 -0.000000 0.000003 -0.000186 -0.001738 -16.643300 -2.192510 6.469440 -0.000001 173.950000 17.259000 174.973000 -39.081100 -0.002282 -0.040193 -0.005883 0.017625 27.538400 -40.985400 0.000008 0.000006 5.031980 22.435000 -69.344300 -11.754300 -0.000006 -0.000006 -0.001881 -0.027219 -17.679900
0.000000 0.000000 0.000000 0.000000 0.000000 -0.000000 4.189880 91.137100 1.301520 88.225800 -14.466800 4.092200 15.735700 0.000005 -0.000001 74.596300 85.824000 -71.932000 8.984550 -0.406207 -0.000000 0.347733 -2.390120 5.332770 16.377300 -0.000001 -0.000001 2.954940 0.572269 -3.032180 6.456720 -0.000001 -0.000000 -2.421580 1.094550 0.828413 12.994200 -0.242716 4.980390 -85.367700 -9.543700 -63.955600 5.348090 -0.000007 -0.000001 -31.294100 -60.421700 -62.717500 24.328600 0.000019 0.000005 14.387000 4.989500 -71.270400 22.291600 -0.000001 0.000005 22.101300 5.346280 -1.265940 12.994500 -0.242716 -4.980390 87.526500 9.087180 -74.702800 -5.348130 -0.000001 -0.000004 -56.185000 21.803100 -5.726330 -24.328900 0.000322 -0.000009 -0.336539 -0.754122 -23.982900 -22.291500 -0.000108 -0.000004 19.964300 5.417650 -3.520220 -2.192480 -6.469440 -0.000000 -178.257000 -17.741300 -2.516000 39.081100 -0.000007 -0.000012 -0.119501 0.225331 27.938800 40.985400 -0.000006 -0.000013 1.638860 -2.108690 -71.474300 11.754300 -0.000000 0.000003 -0.000193 -0.001795 -16.645300 -2.192510 6.469440 -0.000001 173.926000 18.029800 175.218000 -39.081100 -0.002282 -0.040193 -0.017747 0.040843 27.271300 -40.985400 0.000008 0.000006 4.867570 22.410500 -69.164400 -11.754300 -0.000006 -0.000006 -0.001984 -0.028518 -17.732700
0.000000 0.000000 0.000000 0.000000 0.000000 -0.000000 3.998570 91.190800 1.171550 88.231700 -13.460600 4.153410 15.735700 0.000005 -0.000001 75.843200 85.722900 -73.275900 8.984550 -0.406207 -0.000000 0.584779 -2.252240 5.142730 16.377300 -0.000001 -0.000001 2.580760 0.419103 -2.753590 6.456720 -0.000001 -0.000000 -2.375870 1.017870 0.435812 12.994200 -0.242716 4.980390 -86.060100 -8.511440 -65.045800 5.348090 -0.000007 -0.000001 -31.961800 -57.394400 -58.244700 24.328600 0.000019 0.000005 14.746600 3.118640 -78.322000 22.291600 -0.000001 0.000005 21.878100 5.330130 -0.789331 12.994500 -0.242716 -4.980390 87.490700 9.199120 -74.670100 -5.348130 -0.000001 -0.000004 -56.713000 22.258000 -5.331560 -24.328900 0.000322 -0.000009 -0.359251 -0.827170 -23.415000 -22.291500 -0.000108 -0.000004 19.846400 5.417490 -3.514640 -2.192480 -6.469440 -0.000000 -178.033000 -17.530300 -2.543000 39.081100 -0.000007 -0.000012 -0.117014 0.221557 27.840700 40.985400 -0.000006 -0.000013 1.743810 -1.228810 -71.256400 11.754300 -0.000000 0.000003 -0.000199 -0.001845 -16.647200 -2.192510 6.469440 -0.000001 173.900000 19.098600 175.563000 -39.081100 -0.002282 -0.040193 -0.031161 0.067721 26.975200 -40.985400 0.000008 0.000006 4.676390 22.509700 -68.954300 -11.754300 -0.000006 -0.000006 -0.001727 -0.025245 -17.599600
